<svg height="128" viewBox="0 0 128 128" width="128" xmlns="http://www.w3.org/2000/svg"><circle cx="64" cy="64" fill="#ffe400" r="64"/><circle cx="26.95" cy="81.8" fill="#ff81ad" r="5.75"/><circle cx="101.05" cy="81.8" fill="#ff81ad" r="5.75"/><path d="m77.57 77.28a2.18 2.18 0 0 0 -2.18 2.18 4.61 4.61 0 0 1 -9.21 0 2.18 2.18 0 0 0 -4.36 0 4.61 4.61 0 0 1 -9.21 0 2.18 2.18 0 0 0 -4.36 0 9 9 0 0 0 15.75 5.86 9 9 0 0 0 15.75-5.86 2.19 2.19 0 0 0 -2.18-2.18z"/><path d="m91.59 50.69a13 13 0 1 0 13 13 13 13 0 0 0 -13-13z"/><g fill="#fff"><circle cx="100.51" cy="66.42" r="2.18"/><circle cx="87.33" cy="70.49" r="2.18"/><circle cx="95.18" cy="59.51" r="4.61"/></g><path d="m36.41 50.69a13 13 0 1 0 13 13 13 13 0 0 0 -13-13z"/><g fill="#fff"><circle cx="44.46" cy="66.42" r="2.18"/><circle cx="31.27" cy="70.49" r="2.18"/><circle cx="40" cy="59.51" r="4.61"/></g></svg>